<svg xmlns="http://www.w3.org/2000/svg" viewBox="0 0 245 206" fill="currentColor">
  <g transform="translate(0.000000,206.000000) scale(1.000000,-1.000000)">
    <path d="M77 204 c-8 -4 -8 -17 -1 -21 2 -1 16 -2 58 -2 55 0 55 0 61 -4 37-17 31 -74 -8 -85 -4 -1 -15 -1 -41 -1 -48 0 -46 1 -55 -24 -1 -4 -4 -10 -6-15 -2 -4 -4 -8 -4 -9 0 0 -1 -3 -3 -6 -9 -20 -9 -28 0 -32 8 -3 13 1 19 1520 50 16 46 56 47 40 1 41 1 53 7 42 21 51 79 19 112 -9 9 -14 12 -29 17 -9 3-113 4 -119 1z"/>
  </g>
  <rect x="26" y="61" width="112" height="24" rx="12"/>
  <rect x="0" y="115" width="62" height="24" rx="12"/>
</svg>
