<svg version="1.1" id="Layer_1" xmlns="http://www.w3.org/2000/svg" xmlns:xlink="http://www.w3.org/1999/xlink" x="0px" y="0px"
	 width="100%" viewBox="0 0 1827 895" enable-background="new 0 0 1827 895" xml:space="preserve">
<path fill="#FFFFFF" opacity="1.000000" stroke="none" 
	d="
M1360.000000,896.000000 
	C906.666687,896.000000 453.833344,896.000000 1.000000,896.000000 
	C1.000000,597.666687 1.000000,299.333344 1.000000,1.000000 
	C610.000000,1.000000 1219.000000,1.000000 1828.000000,1.000000 
	C1828.000000,299.333344 1828.000000,597.666687 1828.000000,896.000000 
	C1672.166626,896.000000 1516.333374,896.000000 1360.000000,896.000000 
M1197.517456,800.000000 
	C1211.784180,805.574585 1225.904907,811.564941 1240.346436,816.641907 
	C1276.610229,829.390381 1314.158936,836.520752 1352.411987,838.729797 
	C1380.746582,840.365967 1409.228394,839.566650 1437.370728,834.915222 
	C1462.252075,830.802734 1486.716675,824.992554 1510.531494,816.454102 
	C1550.417725,802.153442 1586.982788,782.021179 1620.537476,756.135437 
	C1646.376099,736.202393 1669.026855,713.181824 1689.364258,687.793335 
	C1712.221924,659.258606 1730.043335,627.701050 1744.839966,594.370422 
	C1745.773682,592.267395 1746.100220,589.894897 1746.709351,587.647827 
	C1746.145874,587.306274 1745.582275,586.964783 1745.018799,586.623230 
	C1743.195312,588.532532 1741.066650,590.233154 1739.596436,592.383911 
	C1726.801880,611.100830 1710.870972,626.828735 1692.828857,640.311035 
	C1642.351318,678.031128 1584.735107,694.754456 1522.427002,696.894531 
	C1510.641602,697.299377 1498.782959,696.719971 1487.005615,695.906250 
	C1473.354858,694.963135 1459.624512,694.032043 1446.163330,691.726196 
	C1418.123535,686.923218 1390.794922,679.278137 1364.062988,669.407532 
	C1320.739136,653.410522 1280.835938,630.884399 1242.381958,605.722595 
	C1191.915405,572.700317 1146.184204,533.682556 1102.194702,492.601410 
	C1049.920166,443.782898 1002.054871,390.626495 952.094299,339.529968 
	C913.675964,300.238068 874.723083,261.451782 835.329468,223.138290 
	C817.992615,206.276764 799.378723,190.647430 780.617432,175.350494 
	C753.655029,153.366791 725.408813,133.098480 695.630493,114.994034 
	C656.399536,91.142563 615.128174,71.708458 570.891846,59.433464 
	C549.354614,53.457184 527.058655,50.123413 505.009277,46.127811 
	C495.431061,44.392139 485.618927,43.298100 475.895233,43.159035 
	C459.269745,42.921261 442.583801,43.010872 426.010010,44.186043 
	C410.417755,45.291618 394.876465,47.592907 379.421173,50.050259 
	C350.101257,54.712051 322.033905,63.806660 294.903870,75.707794 
	C235.108200,101.938416 184.859085,140.609222 143.863586,191.498840 
	C119.934204,221.203506 100.950432,253.742188 85.808342,288.629730 
	C85.009026,290.471375 84.874931,292.601776 84.431137,294.597748 
	C84.986588,294.819336 85.542030,295.040955 86.097473,295.262543 
	C87.610207,293.603302 89.362518,292.104706 90.599258,290.260376 
	C105.967590,267.341858 125.561005,248.653137 148.129807,233.018524 
	C190.802765,203.456696 239.046173,189.777374 290.051971,186.361084 
	C322.253937,184.204254 354.605804,185.683548 386.636322,191.817398 
	C414.151154,197.086517 441.103119,204.064728 467.429260,213.542114 
	C518.935730,232.084442 565.992920,259.065247 610.123901,290.992096 
	C635.694397,309.491180 660.083679,329.699493 684.261414,350.022766 
	C703.343689,366.062927 721.793213,382.939453 739.624695,400.364502 
	C765.831665,425.974182 791.418884,452.227631 816.939392,478.527771 
	C849.884521,512.479187 882.476440,546.773071 915.268982,580.872803 
	C964.642944,632.215027 1016.097961,681.255920 1072.889160,724.484680 
	C1111.573120,753.930481 1152.545044,779.507202 1197.517456,800.000000 
M448.500061,839.000000 
	C475.255493,840.106445 501.812073,837.616943 528.018982,832.759949 
	C546.425659,829.348633 564.662231,824.549744 582.586243,819.094055 
	C631.707458,804.142456 676.710205,780.472229 719.289551,752.118286 
	C753.880798,729.083679 786.680603,703.659790 817.171204,675.385559 
	C844.756836,649.805237 872.025635,623.882996 899.394104,598.068970 
	C904.106445,593.624207 904.268555,590.961426 900.343140,586.852661 
	C858.915344,543.488953 817.477173,500.135223 776.026672,456.793213 
	C772.044983,452.629852 769.892639,452.699646 765.739441,456.766022 
	C729.841187,491.913788 693.138794,526.157776 653.941895,557.665710 
	C622.321045,583.083801 589.232727,606.296936 554.234619,626.863403 
	C528.343567,642.078064 500.076050,650.013855 470.700104,652.572449 
	C448.580017,654.499023 426.243530,653.507446 404.113068,648.230225 
	C350.929596,635.548218 308.469330,607.528931 277.898071,562.250916 
	C255.989960,529.803589 244.870163,493.640198 242.867218,454.457214 
	C241.367340,425.115753 244.491989,396.523834 253.955322,368.724792 
	C271.659119,316.718903 305.024780,277.899200 353.550049,252.351578 
	C377.363495,239.814255 402.799652,231.999451 429.777527,230.058624 
	C440.368347,229.296692 451.016510,229.335938 461.638000,228.992798 
	C463.177002,228.943085 464.712799,228.795090 466.854980,228.652237 
	C466.093536,227.192856 465.905029,226.137924 465.362030,225.903305 
	C461.817657,224.371750 458.241333,222.888443 454.593536,221.626022 
	C415.045685,207.939392 374.535797,198.608948 332.615631,197.231628 
	C314.258636,196.628525 295.768829,197.652588 277.441071,199.168076 
	C253.013443,201.187973 229.332138,207.147598 206.461578,216.049377 
	C157.405502,235.143188 118.056686,266.157440 90.286606,311.222870 
	C67.912842,347.531097 57.550323,387.546326 55.143856,429.698151 
	C53.760868,453.922607 55.209652,478.188263 59.117672,502.161377 
	C62.666740,523.932678 67.839012,545.343018 74.945030,566.302185 
	C98.098206,634.591980 137.283813,692.219116 190.868118,740.057800 
	C221.616287,767.509033 256.156952,789.427979 293.971558,805.960632 
	C327.411774,820.580872 362.072144,831.085571 398.486053,834.964783 
	C414.782440,836.700928 431.159637,837.678345 448.500061,839.000000 
M1683.003662,186.478577 
	C1680.611084,183.725098 1678.224365,180.966644 1675.825195,178.218948 
	C1652.441772,151.436584 1625.937500,128.191864 1596.337036,108.520760 
	C1562.311035,85.908585 1525.700195,68.658669 1486.224609,58.151131 
	C1466.964844,53.024612 1447.210938,49.632690 1427.556274,46.161156 
	C1417.168335,44.326382 1406.512451,43.175781 1395.978638,43.183968 
	C1377.732178,43.198143 1359.453613,41.753082 1341.215454,44.854015 
	C1325.372314,47.547752 1309.152954,48.159340 1293.401855,51.236881 
	C1257.445801,58.262180 1222.985474,70.139091 1189.797852,85.692413 
	C1148.529785,105.032722 1110.173096,129.167816 1074.032349,156.784470 
	C1055.602173,170.867676 1037.634766,185.603333 1020.048950,200.730942 
	C1003.658875,214.830093 987.852539,229.629364 972.158569,244.510040 
	C958.012573,257.922943 944.345032,271.841553 930.515259,285.586212 
	C926.678467,289.399353 926.708008,291.379700 930.278931,295.303192 
	C931.063599,296.165314 931.914673,296.966614 932.724304,297.806396 
	C954.810120,320.714966 976.950012,343.571777 998.962280,366.550842 
	C1017.628906,386.037292 1036.119263,405.692474 1054.750610,425.212738 
	C1059.812988,430.516541 1061.066284,430.352539 1066.205444,424.803955 
	C1068.696167,422.114899 1071.202637,419.431519 1073.839111,416.887634 
	C1109.151611,382.815857 1145.227417,349.616394 1183.496460,318.827881 
	C1208.579102,298.648224 1234.360962,279.559174 1261.861206,262.763641 
	C1292.840820,243.843155 1326.335449,232.416428 1362.378784,229.241165 
	C1375.347412,228.098663 1388.568726,229.396271 1401.649780,230.066681 
	C1417.774658,230.893066 1433.336670,234.807816 1448.549927,240.039642 
	C1493.129517,255.370605 1528.779297,282.489746 1554.422241,322.071289 
	C1576.766846,356.561676 1587.718140,394.553741 1588.173584,435.816681 
	C1588.436523,459.625061 1586.197266,482.927856 1579.410645,505.707031 
	C1566.235840,549.928955 1541.322510,586.205566 1503.968506,613.322571 
	C1469.023438,638.690674 1429.777954,652.308838 1386.346313,652.986389 
	C1380.014771,653.085144 1373.678833,652.925110 1367.348389,653.055786 
	C1365.870850,653.086304 1364.407715,653.814697 1362.937866,654.222046 
	C1364.927002,656.689270 1366.725586,658.246399 1368.808228,658.904358 
	C1382.450562,663.214233 1395.956787,668.221863 1409.883057,671.304871 
	C1432.114014,676.226257 1454.507202,680.916382 1477.081543,683.615906 
	C1493.141479,685.536438 1509.612305,683.949646 1525.898926,684.060059 
	C1548.261353,684.211609 1570.124146,680.527466 1591.629272,674.923462 
	C1645.247070,660.951477 1691.382446,634.796509 1726.568848,591.021790 
	C1758.432983,551.380127 1772.938965,505.390991 1775.875000,455.371948 
	C1777.356201,430.140533 1774.839478,405.014130 1771.013184,380.041260 
	C1767.608154,357.817993 1762.118652,336.094299 1754.937500,314.828064 
	C1739.059692,267.807770 1715.007812,225.303970 1683.003662,186.478577 
z"/>
<path fill="#000000" opacity="1.000000" stroke="none" 
	d="
M1197.146484,799.887573 
	C1152.545044,779.507202 1111.573120,753.930481 1072.889160,724.484680 
	C1016.097961,681.255920 964.642944,632.215027 915.268982,580.872803 
	C882.476440,546.773071 849.884521,512.479187 816.939392,478.527771 
	C791.418884,452.227631 765.831665,425.974182 739.624695,400.364502 
	C721.793213,382.939453 703.343689,366.062927 684.261414,350.022766 
	C660.083679,329.699493 635.694397,309.491180 610.123901,290.992096 
	C565.992920,259.065247 518.935730,232.084442 467.429260,213.542114 
	C441.103119,204.064728 414.151154,197.086517 386.636322,191.817398 
	C354.605804,185.683548 322.253937,184.204254 290.051971,186.361084 
	C239.046173,189.777374 190.802765,203.456696 148.129807,233.018524 
	C125.561005,248.653137 105.967590,267.341858 90.599258,290.260376 
	C89.362518,292.104706 87.610207,293.603302 86.097473,295.262543 
	C85.542030,295.040955 84.986588,294.819336 84.431137,294.597748 
	C84.874931,292.601776 85.009026,290.471375 85.808342,288.629730 
	C100.950432,253.742188 119.934204,221.203506 143.863586,191.498840 
	C184.859085,140.609222 235.108200,101.938416 294.903870,75.707794 
	C322.033905,63.806660 350.101257,54.712051 379.421173,50.050259 
	C394.876465,47.592907 410.417755,45.291618 426.010010,44.186043 
	C442.583801,43.010872 459.269745,42.921261 475.895233,43.159035 
	C485.618927,43.298100 495.431061,44.392139 505.009277,46.127811 
	C527.058655,50.123413 549.354614,53.457184 570.891846,59.433464 
	C615.128174,71.708458 656.399536,91.142563 695.630493,114.994034 
	C725.408813,133.098480 753.655029,153.366791 780.617432,175.350494 
	C799.378723,190.647430 817.992615,206.276764 835.329468,223.138290 
	C874.723083,261.451782 913.675964,300.238068 952.094299,339.529968 
	C1002.054871,390.626495 1049.920166,443.782898 1102.194702,492.601410 
	C1146.184204,533.682556 1191.915405,572.700317 1242.381958,605.722595 
	C1280.835938,630.884399 1320.739136,653.410522 1364.062988,669.407532 
	C1390.794922,679.278137 1418.123535,686.923218 1446.163330,691.726196 
	C1459.624512,694.032043 1473.354858,694.963135 1487.005615,695.906250 
	C1498.782959,696.719971 1510.641602,697.299377 1522.427002,696.894531 
	C1584.735107,694.754456 1642.351318,678.031128 1692.828857,640.311035 
	C1710.870972,626.828735 1726.801880,611.100830 1739.596436,592.383911 
	C1741.066650,590.233154 1743.195312,588.532532 1745.018799,586.623230 
	C1745.582275,586.964783 1746.145874,587.306274 1746.709351,587.647827 
	C1746.100220,589.894897 1745.773682,592.267395 1744.839966,594.370422 
	C1730.043335,627.701050 1712.221924,659.258606 1689.364258,687.793335 
	C1669.026855,713.181824 1646.376099,736.202393 1620.537476,756.135437 
	C1586.982788,782.021179 1550.417725,802.153442 1510.531494,816.454102 
	C1486.716675,824.992554 1462.252075,830.802734 1437.370728,834.915222 
	C1409.228394,839.566650 1380.746582,840.365967 1352.411987,838.729797 
	C1314.158936,836.520752 1276.610229,829.390381 1240.346436,816.641907 
	C1225.904907,811.564941 1211.784180,805.574585 1197.146484,799.887573 
z"/>
<path fill="#000000" opacity="1.000000" stroke="none" 
	d="
M448.000122,839.000000 
	C431.159637,837.678345 414.782440,836.700928 398.486053,834.964783 
	C362.072144,831.085571 327.411774,820.580872 293.971558,805.960632 
	C256.156952,789.427979 221.616287,767.509033 190.868118,740.057800 
	C137.283813,692.219116 98.098206,634.591980 74.945030,566.302185 
	C67.839012,545.343018 62.666740,523.932678 59.117672,502.161377 
	C55.209652,478.188263 53.760868,453.922607 55.143856,429.698151 
	C57.550323,387.546326 67.912842,347.531097 90.286606,311.222870 
	C118.056686,266.157440 157.405502,235.143188 206.461578,216.049377 
	C229.332138,207.147598 253.013443,201.187973 277.441071,199.168076 
	C295.768829,197.652588 314.258636,196.628525 332.615631,197.231628 
	C374.535797,198.608948 415.045685,207.939392 454.593536,221.626022 
	C458.241333,222.888443 461.817657,224.371750 465.362030,225.903305 
	C465.905029,226.137924 466.093536,227.192856 466.854980,228.652237 
	C464.712799,228.795090 463.177002,228.943085 461.638000,228.992798 
	C451.016510,229.335938 440.368347,229.296692 429.777527,230.058624 
	C402.799652,231.999451 377.363495,239.814255 353.550049,252.351578 
	C305.024780,277.899200 271.659119,316.718903 253.955322,368.724792 
	C244.491989,396.523834 241.367340,425.115753 242.867218,454.457214 
	C244.870163,493.640198 255.989960,529.803589 277.898071,562.250916 
	C308.469330,607.528931 350.929596,635.548218 404.113068,648.230225 
	C426.243530,653.507446 448.580017,654.499023 470.700104,652.572449 
	C500.076050,650.013855 528.343567,642.078064 554.234619,626.863403 
	C589.232727,606.296936 622.321045,583.083801 653.941895,557.665710 
	C693.138794,526.157776 729.841187,491.913788 765.739441,456.766022 
	C769.892639,452.699646 772.044983,452.629852 776.026672,456.793213 
	C817.477173,500.135223 858.915344,543.488953 900.343140,586.852661 
	C904.268555,590.961426 904.106445,593.624207 899.394104,598.068970 
	C872.025635,623.882996 844.756836,649.805237 817.171204,675.385559 
	C786.680603,703.659790 753.880798,729.083679 719.289551,752.118286 
	C676.710205,780.472229 631.707458,804.142456 582.586243,819.094055 
	C564.662231,824.549744 546.425659,829.348633 528.018982,832.759949 
	C501.812073,837.616943 475.255493,840.106445 448.000122,839.000000 
z"/>
<path fill="#000000" opacity="1.000000" stroke="none" 
	d="
M1683.249146,186.737228 
	C1715.007812,225.303970 1739.059692,267.807770 1754.937500,314.828064 
	C1762.118652,336.094299 1767.608154,357.817993 1771.013184,380.041260 
	C1774.839478,405.014130 1777.356201,430.140533 1775.875000,455.371948 
	C1772.938965,505.390991 1758.432983,551.380127 1726.568848,591.021790 
	C1691.382446,634.796509 1645.247070,660.951477 1591.629272,674.923462 
	C1570.124146,680.527466 1548.261353,684.211609 1525.898926,684.060059 
	C1509.612305,683.949646 1493.141479,685.536438 1477.081543,683.615906 
	C1454.507202,680.916382 1432.114014,676.226257 1409.883057,671.304871 
	C1395.956787,668.221863 1382.450562,663.214233 1368.808228,658.904358 
	C1366.725586,658.246399 1364.927002,656.689270 1362.937866,654.222046 
	C1364.407715,653.814697 1365.870850,653.086304 1367.348389,653.055786 
	C1373.678833,652.925110 1380.014771,653.085144 1386.346313,652.986389 
	C1429.777954,652.308838 1469.023438,638.690674 1503.968506,613.322571 
	C1541.322510,586.205566 1566.235840,549.928955 1579.410645,505.707031 
	C1586.197266,482.927856 1588.436523,459.625061 1588.173584,435.816681 
	C1587.718140,394.553741 1576.766846,356.561676 1554.422241,322.071289 
	C1528.779297,282.489746 1493.129517,255.370605 1448.549927,240.039642 
	C1433.336670,234.807816 1417.774658,230.893066 1401.649780,230.066681 
	C1388.568726,229.396271 1375.347412,228.098663 1362.378784,229.241165 
	C1326.335449,232.416428 1292.840820,243.843155 1261.861206,262.763641 
	C1234.360962,279.559174 1208.579102,298.648224 1183.496460,318.827881 
	C1145.227417,349.616394 1109.151611,382.815857 1073.839111,416.887634 
	C1071.202637,419.431519 1068.696167,422.114899 1066.205444,424.803955 
	C1061.066284,430.352539 1059.812988,430.516541 1054.750610,425.212738 
	C1036.119263,405.692474 1017.628906,386.037292 998.962280,366.550842 
	C976.950012,343.571777 954.810120,320.714966 932.724304,297.806396 
	C931.914673,296.966614 931.063599,296.165314 930.278931,295.303192 
	C926.708008,291.379700 926.678467,289.399353 930.515259,285.586212 
	C944.345032,271.841553 958.012573,257.922943 972.158569,244.510040 
	C987.852539,229.629364 1003.658875,214.830093 1020.048950,200.730942 
	C1037.634766,185.603333 1055.602173,170.867676 1074.032349,156.784470 
	C1110.173096,129.167816 1148.529785,105.032722 1189.797852,85.692413 
	C1222.985474,70.139091 1257.445801,58.262180 1293.401855,51.236881 
	C1309.152954,48.159340 1325.372314,47.547752 1341.215454,44.854015 
	C1359.453613,41.753082 1377.732178,43.198143 1395.978638,43.183968 
	C1406.512451,43.175781 1417.168335,44.326382 1427.556274,46.161156 
	C1447.210938,49.632690 1466.964844,53.024612 1486.224609,58.151131 
	C1525.700195,68.658669 1562.311035,85.908585 1596.337036,108.520760 
	C1625.937500,128.191864 1652.441772,151.436584 1675.825195,178.218948 
	C1678.224365,180.966644 1680.611084,183.725098 1683.249146,186.737228 
z"/>
</svg>