<svg version="1.1" id="Layer_1" xmlns="http://www.w3.org/2000/svg" xmlns:xlink="http://www.w3.org/1999/xlink" x="0px" y="0px"
	 width="100%" viewBox="0 0 1635 895" enable-background="new 0 0 1635 895" xml:space="preserve">
<path fill="#FFFFFF" opacity="1.000000" stroke="none" 
	d="
M1212.000000,896.000000 
	C808.000000,896.000000 404.500000,896.000000 1.000000,896.000000 
	C1.000000,597.666687 1.000000,299.333344 1.000000,1.000000 
	C546.000000,1.000000 1091.000000,1.000000 1636.000000,1.000000 
	C1636.000000,299.333344 1636.000000,597.666687 1636.000000,896.000000 
	C1494.833374,896.000000 1353.666626,896.000000 1212.000000,896.000000 
M1070.717285,572.791870 
	C1050.692871,554.322937 1030.110107,536.418091 1010.763672,517.264404 
	C973.690002,480.560089 939.202576,441.432281 905.304199,401.791229 
	C872.179871,363.055359 839.104553,324.275970 805.736145,285.750977 
	C776.628723,252.145401 746.462646,219.456482 713.758484,189.334473 
	C692.675842,169.916397 670.484619,151.636322 648.082153,133.732178 
	C614.832947,107.159248 578.296631,85.991501 538.950745,69.567146 
	C502.920990,54.527100 465.366852,45.994034 426.627289,43.263073 
	C405.136597,41.748074 383.394226,42.105698 362.071350,46.111313 
	C344.349976,49.440365 326.426392,52.534622 309.275085,57.910831 
	C236.097015,80.849091 178.341614,125.374641 132.621902,186.337936 
	C109.117287,217.679291 91.098579,251.965347 76.988724,288.398071 
	C76.245247,290.317810 76.088341,292.464722 75.658363,294.505859 
	C76.167046,294.699799 76.675728,294.893738 77.184410,295.087677 
	C78.437378,293.650696 79.834961,292.314240 80.916695,290.758240 
	C84.414146,285.727264 87.661255,280.518738 91.243736,275.550964 
	C111.963974,246.818588 138.769653,225.425339 170.417831,209.795670 
	C198.407791,195.972626 228.289474,188.565399 259.086823,186.443481 
	C278.507263,185.105423 298.277649,184.193161 317.805542,187.886414 
	C329.745697,190.144608 342.014893,190.790146 353.856293,193.420532 
	C397.549438,203.126312 438.490601,219.790009 476.910980,242.843475 
	C514.995300,265.695312 550.472900,292.045105 583.057861,322.119995 
	C605.276428,342.627014 627.027832,363.721771 647.867371,385.620300 
	C673.350342,412.398224 698.057800,439.945160 722.381531,467.787720 
	C754.813477,504.911591 786.526489,542.663147 818.596680,580.103638 
	C861.732056,630.462158 907.025513,678.721558 957.353027,722.046692 
	C985.921082,746.639771 1016.244202,768.796997 1048.902710,787.709045 
	C1098.882568,816.651733 1152.437256,834.744324 1210.140015,838.688599 
	C1236.594238,840.496948 1263.127075,839.053345 1289.482788,834.230286 
	C1324.251587,827.867615 1357.125000,816.482239 1388.048340,799.645386 
	C1435.218506,773.962646 1474.222778,738.867065 1506.273315,695.810364 
	C1529.674927,664.372437 1547.700928,630.087952 1561.950317,593.708557 
	C1562.703125,591.786316 1562.872681,589.635620 1563.313843,587.591309 
	C1562.789429,587.378174 1562.265015,587.165039 1561.740601,586.951904 
	C1560.239380,588.589783 1558.412476,590.031189 1557.287598,591.896057 
	C1546.524902,609.737671 1532.815796,625.013550 1517.095337,638.576111 
	C1473.246460,676.406128 1421.651367,694.110535 1364.470215,696.877747 
	C1353.535645,697.406860 1342.524292,696.079956 1331.549072,696.095276 
	C1314.053955,696.119690 1297.051758,692.597717 1280.229858,688.647522 
	C1233.019409,677.561279 1189.640869,657.517761 1149.057373,631.124939 
	C1121.896729,613.461609 1095.819336,594.379700 1070.717285,572.791870 
M740.972473,666.474670 
	C761.813477,644.236206 782.676025,622.017883 803.482727,599.747375 
	C809.998413,592.773315 809.801086,591.374084 803.407471,584.004944 
	C788.235107,566.517700 773.137939,548.964600 758.099060,531.362305 
	C736.786255,506.416656 715.569153,481.389282 694.268494,456.433167 
	C691.116028,452.739685 689.113220,452.910309 685.727112,456.402832 
	C659.086487,483.880585 632.836914,511.755035 605.633484,538.664856 
	C576.108032,567.871582 543.720032,593.709290 509.888336,617.877380 
	C483.263275,636.897217 454.204193,649.404053 421.915253,652.596130 
	C399.593323,654.802979 377.133728,653.266418 355.160248,646.484680 
	C309.137604,632.280518 274.260590,604.112427 249.451965,563.398621 
	C229.357620,530.421631 219.423584,494.245087 217.520813,455.642670 
	C215.863693,422.023773 219.575897,389.279968 231.027069,357.570282 
	C246.851868,313.749512 273.553802,278.437225 313.656311,254.066788 
	C343.473877,235.946548 375.952057,227.444336 410.936890,228.973587 
	C413.103058,229.068268 415.285919,228.781128 418.126251,228.638153 
	C415.426788,223.208847 410.724731,223.098373 406.929199,221.629440 
	C371.775330,208.024429 335.574860,198.626236 297.788513,197.237183 
	C281.271027,196.629974 264.613678,197.719650 248.118805,199.166641 
	C229.729034,200.779861 211.903854,205.568359 194.613297,212.091400 
	C150.328110,228.798492 115.262367,257.148224 89.497101,296.723877 
	C62.926010,337.537292 51.358284,383.176422 49.527317,431.249359 
	C48.740593,451.905182 50.338722,472.748169 52.204800,493.383881 
	C54.448841,518.199219 59.852219,542.526184 67.164894,566.386047 
	C82.778046,617.328857 106.493263,664.109070 140.005890,705.604126 
	C161.271194,731.934570 185.311142,755.447449 212.831512,775.494385 
	C264.340302,813.015198 321.839081,834.072388 385.120117,838.755188 
	C414.574554,840.934814 444.119812,838.891602 473.143188,832.821350 
	C517.343323,823.576843 558.470459,806.502869 597.204407,783.371826 
	C650.600098,751.485291 696.649231,710.610962 740.972473,666.474670 
M940.913269,174.416687 
	C933.713623,181.079224 926.151245,187.394241 919.377319,194.464630 
	C890.580750,224.521759 861.998108,254.784073 833.391052,285.022308 
	C829.145630,289.509766 829.272217,291.355072 833.380493,296.123199 
	C843.385010,307.734558 853.429138,319.311859 863.400452,330.951660 
	C889.192505,361.059448 914.999023,391.155151 940.701294,421.339508 
	C948.943848,431.019470 948.624084,430.977692 957.224487,421.459503 
	C986.591675,388.958557 1017.153748,357.635742 1049.356445,327.909821 
	C1072.314453,306.717499 1096.016235,286.491699 1121.398193,268.218048 
	C1150.766602,247.074249 1182.878296,232.581909 1219.082642,229.285553 
	C1237.843506,227.577393 1256.802246,228.570862 1275.343872,233.341400 
	C1324.882568,246.087021 1362.496094,274.896942 1388.981934,318.239197 
	C1410.890259,354.090668 1421.021484,393.309692 1421.443726,435.351990 
	C1421.701782,461.045502 1419.500610,486.262848 1412.221191,510.931915 
	C1398.600342,557.092163 1373.583130,595.402954 1333.442261,622.745483 
	C1303.917114,642.856873 1271.292603,653.813049 1235.181641,653.011230 
	C1231.350098,652.926147 1227.512085,652.911865 1223.683716,653.051392 
	C1222.435913,653.096863 1221.209717,653.736450 1219.973633,654.104248 
	C1219.878906,654.747925 1219.784058,655.391663 1219.689331,656.035339 
	C1223.809204,657.757874 1227.907715,659.533997 1232.052490,661.194641 
	C1269.154907,676.059204 1307.694336,684.240295 1347.648315,684.885742 
	C1371.154175,685.265564 1394.501587,682.958191 1417.360107,676.997437 
	C1468.854736,663.569275 1511.633301,636.763123 1543.521118,593.772888 
	C1574.011108,552.667419 1587.083618,505.490295 1589.555664,455.099731 
	C1590.867920,428.353210 1588.367188,401.738892 1584.355103,375.219208 
	C1579.594116,343.750031 1571.442505,313.256409 1560.047729,283.609863 
	C1546.235718,247.674652 1527.646362,214.264603 1504.450317,183.621048 
	C1489.787476,164.250412 1473.316162,146.363632 1455.122925,130.071106 
	C1416.494873,95.478722 1372.713745,70.217804 1322.857178,55.735409 
	C1293.508911,47.210308 1263.558838,42.536232 1232.944458,43.075550 
	C1222.024780,43.267918 1211.128784,44.601974 1200.207275,44.935143 
	C1182.303589,45.481308 1164.993408,49.404499 1147.761353,53.704193 
	C1103.048218,64.860817 1062.286987,84.833351 1023.845276,109.859734 
	C994.585083,128.908737 967.496155,150.760971 940.913269,174.416687 
z"/>
<path fill="#000000" opacity="1.000000" stroke="none" 
	d="
M1070.958130,573.053467 
	C1095.819336,594.379700 1121.896729,613.461609 1149.057373,631.124939 
	C1189.640869,657.517761 1233.019409,677.561279 1280.229858,688.647522 
	C1297.051758,692.597717 1314.053955,696.119690 1331.549072,696.095276 
	C1342.524292,696.079956 1353.535645,697.406860 1364.470215,696.877747 
	C1421.651367,694.110535 1473.246460,676.406128 1517.095337,638.576111 
	C1532.815796,625.013550 1546.524902,609.737671 1557.287598,591.896057 
	C1558.412476,590.031189 1560.239380,588.589783 1561.740601,586.951904 
	C1562.265015,587.165039 1562.789429,587.378174 1563.313843,587.591309 
	C1562.872681,589.635620 1562.703125,591.786316 1561.950317,593.708557 
	C1547.700928,630.087952 1529.674927,664.372437 1506.273315,695.810364 
	C1474.222778,738.867065 1435.218506,773.962646 1388.048340,799.645386 
	C1357.125000,816.482239 1324.251587,827.867615 1289.482788,834.230286 
	C1263.127075,839.053345 1236.594238,840.496948 1210.140015,838.688599 
	C1152.437256,834.744324 1098.882568,816.651733 1048.902710,787.709045 
	C1016.244202,768.796997 985.921082,746.639771 957.353027,722.046692 
	C907.025513,678.721558 861.732056,630.462158 818.596680,580.103638 
	C786.526489,542.663147 754.813477,504.911591 722.381531,467.787720 
	C698.057800,439.945160 673.350342,412.398224 647.867371,385.620300 
	C627.027832,363.721771 605.276428,342.627014 583.057861,322.119995 
	C550.472900,292.045105 514.995300,265.695312 476.910980,242.843475 
	C438.490601,219.790009 397.549438,203.126312 353.856293,193.420532 
	C342.014893,190.790146 329.745697,190.144608 317.805542,187.886414 
	C298.277649,184.193161 278.507263,185.105423 259.086823,186.443481 
	C228.289474,188.565399 198.407791,195.972626 170.417831,209.795670 
	C138.769653,225.425339 111.963974,246.818588 91.243736,275.550964 
	C87.661255,280.518738 84.414146,285.727264 80.916695,290.758240 
	C79.834961,292.314240 78.437378,293.650696 77.184410,295.087677 
	C76.675728,294.893738 76.167046,294.699799 75.658363,294.505859 
	C76.088341,292.464722 76.245247,290.317810 76.988724,288.398071 
	C91.098579,251.965347 109.117287,217.679291 132.621902,186.337936 
	C178.341614,125.374641 236.097015,80.849091 309.275085,57.910831 
	C326.426392,52.534622 344.349976,49.440365 362.071350,46.111313 
	C383.394226,42.105698 405.136597,41.748074 426.627289,43.263073 
	C465.366852,45.994034 502.920990,54.527100 538.950745,69.567146 
	C578.296631,85.991501 614.832947,107.159248 648.082153,133.732178 
	C670.484619,151.636322 692.675842,169.916397 713.758484,189.334473 
	C746.462646,219.456482 776.628723,252.145401 805.736145,285.750977 
	C839.104553,324.275970 872.179871,363.055359 905.304199,401.791229 
	C939.202576,441.432281 973.690002,480.560089 1010.763672,517.264404 
	C1030.110107,536.418091 1050.692871,554.322937 1070.958130,573.053467 
z"/>
<path fill="#000000" opacity="1.000000" stroke="none" 
	d="
M740.734863,666.736694 
	C696.649231,710.610962 650.600098,751.485291 597.204407,783.371826 
	C558.470459,806.502869 517.343323,823.576843 473.143188,832.821350 
	C444.119812,838.891602 414.574554,840.934814 385.120117,838.755188 
	C321.839081,834.072388 264.340302,813.015198 212.831512,775.494385 
	C185.311142,755.447449 161.271194,731.934570 140.005890,705.604126 
	C106.493263,664.109070 82.778046,617.328857 67.164894,566.386047 
	C59.852219,542.526184 54.448841,518.199219 52.204800,493.383881 
	C50.338722,472.748169 48.740593,451.905182 49.527317,431.249359 
	C51.358284,383.176422 62.926010,337.537292 89.497101,296.723877 
	C115.262367,257.148224 150.328110,228.798492 194.613297,212.091400 
	C211.903854,205.568359 229.729034,200.779861 248.118805,199.166641 
	C264.613678,197.719650 281.271027,196.629974 297.788513,197.237183 
	C335.574860,198.626236 371.775330,208.024429 406.929199,221.629440 
	C410.724731,223.098373 415.426788,223.208847 418.126251,228.638153 
	C415.285919,228.781128 413.103058,229.068268 410.936890,228.973587 
	C375.952057,227.444336 343.473877,235.946548 313.656311,254.066788 
	C273.553802,278.437225 246.851868,313.749512 231.027069,357.570282 
	C219.575897,389.279968 215.863693,422.023773 217.520813,455.642670 
	C219.423584,494.245087 229.357620,530.421631 249.451965,563.398621 
	C274.260590,604.112427 309.137604,632.280518 355.160248,646.484680 
	C377.133728,653.266418 399.593323,654.802979 421.915253,652.596130 
	C454.204193,649.404053 483.263275,636.897217 509.888336,617.877380 
	C543.720032,593.709290 576.108032,567.871582 605.633484,538.664856 
	C632.836914,511.755035 659.086487,483.880585 685.727112,456.402832 
	C689.113220,452.910309 691.116028,452.739685 694.268494,456.433167 
	C715.569153,481.389282 736.786255,506.416656 758.099060,531.362305 
	C773.137939,548.964600 788.235107,566.517700 803.407471,584.004944 
	C809.801086,591.374084 809.998413,592.773315 803.482727,599.747375 
	C782.676025,622.017883 761.813477,644.236206 740.734863,666.736694 
z"/>
<path fill="#000000" opacity="1.000000" stroke="none" 
	d="
M941.180420,174.180939 
	C967.496155,150.760971 994.585083,128.908737 1023.845276,109.859734 
	C1062.286987,84.833351 1103.048218,64.860817 1147.761353,53.704193 
	C1164.993408,49.404499 1182.303589,45.481308 1200.207275,44.935143 
	C1211.128784,44.601974 1222.024780,43.267918 1232.944458,43.075550 
	C1263.558838,42.536232 1293.508911,47.210308 1322.857178,55.735409 
	C1372.713745,70.217804 1416.494873,95.478722 1455.122925,130.071106 
	C1473.316162,146.363632 1489.787476,164.250412 1504.450317,183.621048 
	C1527.646362,214.264603 1546.235718,247.674652 1560.047729,283.609863 
	C1571.442505,313.256409 1579.594116,343.750031 1584.355103,375.219208 
	C1588.367188,401.738892 1590.867920,428.353210 1589.555664,455.099731 
	C1587.083618,505.490295 1574.011108,552.667419 1543.521118,593.772888 
	C1511.633301,636.763123 1468.854736,663.569275 1417.360107,676.997437 
	C1394.501587,682.958191 1371.154175,685.265564 1347.648315,684.885742 
	C1307.694336,684.240295 1269.154907,676.059204 1232.052490,661.194641 
	C1227.907715,659.533997 1223.809204,657.757874 1219.689331,656.035339 
	C1219.784058,655.391663 1219.878906,654.747925 1219.973633,654.104248 
	C1221.209717,653.736450 1222.435913,653.096863 1223.683716,653.051392 
	C1227.512085,652.911865 1231.350098,652.926147 1235.181641,653.011230 
	C1271.292603,653.813049 1303.917114,642.856873 1333.442261,622.745483 
	C1373.583130,595.402954 1398.600342,557.092163 1412.221191,510.931915 
	C1419.500610,486.262848 1421.701782,461.045502 1421.443726,435.351990 
	C1421.021484,393.309692 1410.890259,354.090668 1388.981934,318.239197 
	C1362.496094,274.896942 1324.882568,246.087021 1275.343872,233.341400 
	C1256.802246,228.570862 1237.843506,227.577393 1219.082642,229.285553 
	C1182.878296,232.581909 1150.766602,247.074249 1121.398193,268.218048 
	C1096.016235,286.491699 1072.314453,306.717499 1049.356445,327.909821 
	C1017.153748,357.635742 986.591675,388.958557 957.224487,421.459503 
	C948.624084,430.977692 948.943848,431.019470 940.701294,421.339508 
	C914.999023,391.155151 889.192505,361.059448 863.400452,330.951660 
	C853.429138,319.311859 843.385010,307.734558 833.380493,296.123199 
	C829.272217,291.355072 829.145630,289.509766 833.391052,285.022308 
	C861.998108,254.784073 890.580750,224.521759 919.377319,194.464630 
	C926.151245,187.394241 933.713623,181.079224 941.180420,174.180939 
z"/>
</svg>