<svg version="1.1" xmlns="http://www.w3.org/2000/svg" viewBox="0 0 360 201" width="100%">
<defs>
  <linearGradient id="oo-gradient" x1="25" y1="100" x2="338" y2="100" gradientUnits="userSpaceOnUse">
    <stop offset="0%" stop-color="#3B82F6"/>
    <stop offset="100%" stop-color="#818CF8"/>
  </linearGradient>
  <mask id="oo-mask">
    <!-- Base figure-eight shape (full visibility) -->
    <path fill="white" d="
M166.134125,157.048141
	C132.586807,197.722397 73.798325,197.524887 42.802078,156.108124
	C25.480143,132.962784 22.583099,106.973480 33.578308,80.453224
	C44.520626,54.060539 64.946198,38.246593 93.404449,34.045143
	C119.171272,30.241039 141.338104,38.210899 159.861588,56.470673
	C167.317932,63.820858 174.842270,71.102058 182.763367,78.714584
	C192.885605,88.875565 202.571777,98.744949 212.305038,108.567657
	C212.700882,108.967140 213.540939,108.926468 214.160873,109.436378
	C214.393585,110.369820 214.490921,111.105637 214.907288,111.523773
	C222.896820,119.547462 230.749268,127.719696 239.000153,135.467102
	C245.210480,141.298477 253.049973,143.808563 261.482849,143.561493
	C276.244781,143.128998 289.477448,132.383591 292.851776,118.563324
	C296.516541,103.553505 290.107666,88.585785 276.763947,80.990707
	C263.943420,73.693443 247.801834,76.047729 236.754593,86.796165
	C233.542847,89.921021 230.269272,92.982315 226.981720,95.714371
	C226.556458,94.440216 226.382339,93.338188 225.757767,92.637886
	C220.408752,86.640350 214.967529,80.725182 209.576172,74.765228
	C206.577499,71.450310 203.621246,68.097023 200.436295,64.526054
	C199.699661,64.637062 198.401810,64.832657 197.103943,65.028252
	C218.465012,39.697178 245.015823,28.033501 278.179749,35.139061
	C312.731018,42.541862 338.892456,76.168785 337.570587,110.723900
	C336.092560,149.361603 309.844208,180.364136 273.609802,186.059738
	C247.494232,190.164810 224.895004,182.899475 205.946472,164.467697
	C199.265106,157.968552 192.789322,151.258163 186.116058,144.750458
	C184.926849,143.590744 183.228577,142.953003 181.409088,141.688843
	C180.382950,140.034592 179.966888,138.516220 179.003311,137.536163
	C170.844894,129.238144 162.609787,121.014763 154.324188,112.843544
	C153.446136,111.977615 152.095947,111.590446 150.941864,110.635231
	C142.963409,102.060875 135.296799,93.526649 126.986107,85.674095
	C113.778938,73.194977 93.051003,73.959053 80.602638,86.896385
	C67.835243,100.165276 67.992928,120.725540 80.961555,133.697037
	C93.858627,146.596954 113.996422,146.886642 127.349899,134.359970
	C130.254272,131.635422 133.145203,128.896545 136.035019,126.535851
	C136.625900,128.377563 136.858795,130.200287 137.881927,131.260239
	C144.228195,137.834869 150.637070,144.359604 157.273666,150.638229
	C159.898895,153.121841 163.161652,154.931580 166.134125,157.048141
z"/>
    <!-- Shadow on lower band (single unified path = no seams) -->
    <path fill="rgb(178,178,178)" d="
M166.400757,156.950745
	C163.161652,154.931580 159.898895,153.121841 157.273666,150.638229
	C150.637070,144.359604 144.228195,137.834869 137.881927,131.260239
	C136.858795,130.200287 136.625900,128.377563 136.151245,126.246414
	C136.905762,125.068428 137.536758,124.551453 138.412415,124.244125
	C143.107437,129.099411 147.556503,133.746307 152.008499,138.390381
	C157.355164,143.967697 162.704330,149.542603 168.052414,155.118561
	C167.590744,155.696823 167.129074,156.275085 166.400757,156.950745z
M150.964783,110.981171
	C152.095947,111.590446 153.446136,111.977615 154.324188,112.843544
	C162.609787,121.014763 170.844894,129.238144 179.003311,137.536163
	C179.966888,138.516220 180.382950,140.034592 181.036362,141.674927
	C180.698425,142.153534 180.435394,142.342194 179.732956,142.762146
	C170.852173,134.998398 162.481552,127.071808 154.076996,119.181389
	C152.183838,117.404053 150.172287,115.752831 148.316330,113.763031
	C149.266541,112.648727 150.115662,111.814949 150.964783,110.981171z
M168.354340,154.985931
	C162.704330,149.542603 157.355164,143.967697 152.008499,138.390381
	C147.556503,133.746307 143.107437,129.099411 138.536102,123.959984
	C139.621750,122.350853 140.828354,121.235519 142.071594,120.460327
	C151.042328,130.310272 159.965164,139.830795 168.963699,149.279266
	C169.240402,149.569809 170.303513,149.111359 171.274200,149.117859
	C172.074997,149.509811 172.601624,149.786026 173.128250,150.062225
	C171.637589,151.659256 170.146927,153.256271 168.354340,154.985931z
M173.385864,149.966248
	C172.601624,149.786026 172.074997,149.509811 171.240448,148.772980
	C169.694916,146.781448 168.564789,145.146683 167.202042,143.736755
	C159.225800,135.484299 151.195175,127.284431 143.305710,118.781197
	C144.631271,117.374313 145.834015,116.253059 147.039200,115.488602
	C147.963623,117.333389 148.653336,119.047859 149.846405,120.271538
	C156.200821,126.788956 162.771423,133.097046 169.071045,139.665695
	C171.393265,142.087082 173.179276,145.022690 175.209839,147.723770
	C174.687714,148.439270 174.165604,149.154770 173.385864,149.966248z
M175.528595,147.561218
	C173.179276,145.022690 171.393265,142.087082 169.071045,139.665695
	C162.771423,133.097046 156.200821,126.788956 149.846405,120.271538
	C148.653336,119.047859 147.963623,117.333389 147.154816,115.230011
	C147.583725,114.424271 147.899490,114.233917 148.215240,114.043556
	C150.172287,115.752831 152.183838,117.404053 154.076996,119.181389
	C162.481552,127.071808 170.852173,134.998398 179.577972,142.952820
	C178.563049,144.462067 177.205215,145.930374 175.528595,147.561218z
M142.071594,120.460327
	C142.242111,119.824783 142.449280,119.529381 142.919678,119.150406
	C151.195175,127.284431 159.225800,135.484299 167.202042,143.736755
	C168.564789,145.146683 169.694916,146.781448 170.966248,148.657227
	C170.303513,149.111359 169.240402,149.569809 168.963699,149.279266
	C159.965164,139.830795 151.042328,130.310272 142.071594,120.460327z
"/>
    <!-- Right inner circle (cut out) -->
    <path fill="black" d="
M215.931564,107.342163
	C217.491287,105.703270 218.954681,104.328827 220.587326,102.650307
	C221.446182,101.762184 222.135788,101.178139 222.926102,100.335823
	C224.280121,98.939713 225.533432,97.801880 226.905396,96.368393
	C230.269272,92.982315 233.542847,89.921021 236.754593,86.796165
	C247.801834,76.047729 263.943420,73.693443 276.763947,80.990707
	C290.107666,88.585785 296.516541,103.553505 292.851776,118.563324
	C289.477448,132.383591 276.244781,143.128998 261.482849,143.561493
	C253.049973,143.808563 245.210480,141.298477 239.000153,135.467102
	C230.749268,127.719696 222.896820,119.547462 214.907288,111.523773
	C214.490921,111.105637 214.393585,110.369820 214.160873,109.436378
	C214.727768,108.596107 215.281494,108.101357 215.931564,107.342163
z"/>
    <!-- Left inner circle (cut out) -->
    <path fill="black" d="
M148.316330,113.763031
	C147.899490,114.233917 147.583725,114.424271 147.152374,114.873215
	C145.834015,116.253059 144.631271,117.374313 143.042480,118.864777
	C142.449280,119.529381 142.242111,119.824783 142.034943,120.120186
	C140.828354,121.235519 139.621750,122.350853 138.291443,123.750336
	C137.536758,124.551453 136.905762,125.068428 136.158554,125.874832
	C133.145203,128.896545 130.254272,131.635422 127.349899,134.359970
	C113.996422,146.886642 93.858627,146.596954 80.961555,133.697037
	C67.992928,120.725540 67.835243,100.165276 80.602638,86.896385
	C93.051003,73.959053 113.778938,73.194977 126.986107,85.674095
	C135.296799,93.526649 142.963409,102.060875 150.941864,110.635239
	C150.115662,111.814949 149.266541,112.648727 148.316330,113.763031
z"/>
  </mask>
</defs>
<rect x="0" y="0" width="360" height="201" fill="url(#oo-gradient)" mask="url(#oo-mask)"/>
</svg>
