<svg xmlns="http://www.w3.org/2000/svg" width="32" height="32" viewBox="0 0 32 32" fill="none">
  <!-- Style 4: Ribbon / Mobius - continuous path with overlap illusion -->
  <!-- Back ribbon (cyan, drawn first so green overlaps at center) -->
  <path d="M16 19C18 22 20.5 24 23.5 24C27 24 30 21 30 16C30 11 27 8 23.5 8C20.5 8 18 10 16 13" stroke="#818CF8" stroke-width="3" stroke-linecap="round" fill="none"/>
  <!-- Front ribbon (green, overlaps at center crossing) -->
  <path d="M16 13C14 10 11.5 8 8.5 8C5 8 2 11 2 16C2 21 5 24 8.5 24C11.5 24 14 22 16 19" stroke="#3B82F6" stroke-width="3" stroke-linecap="round" fill="none"/>
  <!-- Center overlap mask - small bg-colored circle to create depth -->
  <circle cx="16" cy="16" r="2.5" fill="#0a0a0b"/>
  <!-- Redraw crossing segments for depth effect -->
  <path d="M14.5 14C15 15 15.5 15.8 16 16.5" stroke="#3B82F6" stroke-width="3" stroke-linecap="round" fill="none"/>
  <path d="M16 15.5C16.5 16.2 17 17 17.5 18" stroke="#818CF8" stroke-width="3" stroke-linecap="round" fill="none"/>
</svg>
