<svg xmlns="http://www.w3.org/2000/svg" width="32" height="32" viewBox="0 0 32 32" fill="none">
  <!-- Style 3: Solid filled loops (no stroke, filled paths) -->
  <path d="M16 14.5C14.2 11.5 11.8 9.5 8.8 9.5C5.8 9.5 3.5 12.2 3.5 16C3.5 19.8 5.8 22.5 8.8 22.5C11.8 22.5 14.2 20.5 16 17.5C14.2 20.5 11.8 22.5 8.8 22.5" fill="none"/>
  <path d="M8.5 6C4 6 0.5 10.5 0.5 16C0.5 21.5 4 26 8.5 26C12.5 26 15 23 16 20.5L16 19C14 22 11.5 24 8.5 24C5 24 2 21 2 16C2 11 5 8 8.5 8C11.5 8 14 10 16 13L16 11.5C15 9 12.5 6 8.5 6Z" fill="#3B82F6"/>
  <path d="M23.5 6C27.99 6 31.5 10.5 31.5 16C31.5 21.5 28 26 23.5 26C19.5 26 17 23 16 20.5L16 19C18 22 20.5 24 23.5 24C27 24 30 21 30 16C30 11 27 8 23.5 8C20.5 8 18 10 16 13L16 11.5C17 9 19.5 6 23.5 6Z" fill="#818CF8"/>
</svg>
