<svg xmlns="http://www.w3.org/2000/svg" width="32" height="32" viewBox="0 0 32 32" fill="none">
  <!-- Style 16: Figure-8 with gradient transition at crossing point
       Colors blend as the path crosses -->
  <defs>
    <linearGradient id="g16-green" x1="0" y1="0" x2="1" y2="0">
      <stop offset="0%" stop-color="#3B82F6"/>
      <stop offset="80%" stop-color="#3B82F6"/>
      <stop offset="100%" stop-color="#0EA5C7"/>
    </linearGradient>
    <linearGradient id="g16-cyan" x1="1" y1="0" x2="0" y2="0">
      <stop offset="0%" stop-color="#818CF8"/>
      <stop offset="80%" stop-color="#818CF8"/>
      <stop offset="100%" stop-color="#0EAD8C"/>
    </linearGradient>
  </defs>
  <!-- Cyan loop (behind) -->
  <path d="M16 16C18.5 20.5 21 23 24 23C27.5 23 30 20 30 16C30 12 27.5 9 24 9C21 9 18.5 11.5 16 16Z" stroke="url(#g16-cyan)" stroke-width="2.5" fill="none"/>
  <!-- Background mask -->
  <rect x="13.5" y="12.5" width="5" height="7" rx="0.5" fill="#0a0a0b"/>
  <!-- Green loop (in front) -->
  <path d="M16 16C13.5 11.5 11 9 8 9C4.5 9 2 12 2 16C2 20 4.5 23 8 23C11 23 13.5 20.5 16 16Z" stroke="url(#g16-green)" stroke-width="2.5" fill="none"/>
</svg>
