<svg xmlns="http://www.w3.org/2000/svg" width="32" height="32" viewBox="0 0 32 32" fill="none">
  <!-- Style 17: Double-line figure-8 with z-twist
       Two parallel strokes per loop, proper over/under -->
  <!-- Cyan outer (behind) -->
  <path d="M16 16C18.5 21 21.5 24 24.5 24C28 24 31 20.5 31 16C31 11.5 28 8 24.5 8C21.5 8 18.5 11 16 16Z" stroke="#818CF8" stroke-width="1.5" fill="none"/>
  <!-- Cyan inner (behind) -->
  <path d="M16 16C18 19.5 20.5 22 23.5 22C26.5 22 29 19.5 29 16C29 12.5 26.5 10 23.5 10C20.5 10 18 12.5 16 16Z" stroke="#818CF8" stroke-width="1.5" fill="none"/>
  <!-- Background mask -->
  <rect x="13" y="12" width="6" height="8" rx="0.5" fill="#0a0a0b"/>
  <!-- Green outer (in front) -->
  <path d="M16 16C13.5 11 10.5 8 7.5 8C4 8 1 11.5 1 16C1 20.5 4 24 7.5 24C10.5 24 13.5 21 16 16Z" stroke="#3B82F6" stroke-width="1.5" fill="none"/>
  <!-- Green inner (in front) -->
  <path d="M16 16C14 12.5 11.5 10 8.5 10C5.5 10 3 12.5 3 16C3 19.5 5.5 22 8.5 22C11.5 22 14 19.5 16 16Z" stroke="#3B82F6" stroke-width="1.5" fill="none"/>
</svg>
