<svg xmlns="http://www.w3.org/2000/svg" width="32" height="32" viewBox="0 0 32 32">
  <!-- Style 22: Wide 3D twisted ribbon - thicker band, more surface visible -->

  <!-- Right loop ribbon (behind) - cyan -->
  <path d="
    M 17.5 12
    C 20 8  23 6  25.5 6
    C 29 6  31.5 10  31.5 16
    C 31.5 22  29 26  25.5 26
    C 23 26  20 24  17.5 20
    L 14.5 18
    C 17 22  21 24  24.5 24
    C 27.5 24  29.5 21  29.5 16
    C 29.5 11  27.5 8  24.5 8
    C 21 8  17 10  14.5 14
    Z
  " fill="#818CF8"/>

  <path d="
    M 17.5 12
    C 20 8  23 6  25.5 6
    C 29 6  31.5 10  31.5 16
    C 31.5 22  29 26  25.5 26
    C 23 26  20 24  17.5 20
    L 14.5 18
    C 17 22  21 24  24.5 24
    C 27.5 24  29.5 21  29.5 16
    C 29.5 11  27.5 8  24.5 8
    C 21 8  17 10  14.5 14
    Z
  " fill="url(#shade-r22)"/>

  <!-- Left loop ribbon (in front) - green -->
  <path d="
    M 14.5 20
    C 12 24  9 26  6.5 26
    C 3 26  0.5 22  0.5 16
    C 0.5 10  3 6  6.5 6
    C 9 6  12 8  14.5 12
    L 17.5 14
    C 15 10  11 8  7.5 8
    C 4.5 8  2.5 11  2.5 16
    C 2.5 21  4.5 24  7.5 24
    C 11 24  15 22  17.5 18
    Z
  " fill="#3B82F6"/>

  <path d="
    M 14.5 20
    C 12 24  9 26  6.5 26
    C 3 26  0.5 22  0.5 16
    C 0.5 10  3 6  6.5 6
    C 9 6  12 8  14.5 12
    L 17.5 14
    C 15 10  11 8  7.5 8
    C 4.5 8  2.5 11  2.5 16
    C 2.5 21  4.5 24  7.5 24
    C 11 24  15 22  17.5 18
    Z
  " fill="url(#shade-l22)"/>

  <defs>
    <linearGradient id="shade-r22" x1="0.3" y1="0" x2="0.8" y2="1">
      <stop offset="0%" stop-color="#000" stop-opacity="0.12"/>
      <stop offset="100%" stop-color="#fff" stop-opacity="0.06"/>
    </linearGradient>
    <linearGradient id="shade-l22" x1="0.7" y1="0" x2="0.2" y2="1">
      <stop offset="0%" stop-color="#fff" stop-opacity="0.1"/>
      <stop offset="100%" stop-color="#000" stop-opacity="0.08"/>
    </linearGradient>
  </defs>
</svg>
