<svg xmlns="http://www.w3.org/2000/svg" width="32" height="32" viewBox="0 0 32 32">
  <!-- Style 28: Bold solid 3D ribbon - heavy, confident band
       Maximum width ribbon with strong visual presence -->

  <!-- Right loop ribbon (behind) - cyan -->
  <path d="
    M 18 11.5
    C 20.5 7  23.5 5  26 5
    C 29.5 5  32 10  32 16
    C 32 22  29.5 27  26 27
    C 23.5 27  20.5 25  18 20.5
    L 14 18.5
    C 16.5 22  20.5 24.5  24.5 24.5
    C 27.5 24.5  29.5 21  29.5 16
    C 29.5 11  27.5 7.5  24.5 7.5
    C 20.5 7.5  16.5 10  14 13.5
    Z
  " fill="#818CF8"/>

  <path d="
    M 18 11.5 C 20.5 7  23.5 5  26 5 C 29.5 5  32 10  32 16
    C 32 22  29.5 27  26 27 C 23.5 27  20.5 25  18 20.5
    L 14 18.5 C 16.5 22  20.5 24.5  24.5 24.5 C 27.5 24.5  29.5 21  29.5 16
    C 29.5 11  27.5 7.5  24.5 7.5 C 20.5 7.5  16.5 10  14 13.5 Z
  " fill="url(#shade-r28)"/>

  <!-- Left loop ribbon (in front) - green -->
  <path d="
    M 14 20.5
    C 11.5 25  8.5 27  6 27
    C 2.5 27  0 22  0 16
    C 0 10  2.5 5  6 5
    C 8.5 5  11.5 7  14 11.5
    L 18 13.5
    C 15.5 10  11.5 7.5  7.5 7.5
    C 4.5 7.5  2.5 11  2.5 16
    C 2.5 21  4.5 24.5  7.5 24.5
    C 11.5 24.5  15.5 22  18 18.5
    Z
  " fill="#3B82F6"/>

  <path d="
    M 14 20.5 C 11.5 25  8.5 27  6 27 C 2.5 27  0 22  0 16
    C 0 10  2.5 5  6 5 C 8.5 5  11.5 7  14 11.5
    L 18 13.5 C 15.5 10  11.5 7.5  7.5 7.5 C 4.5 7.5  2.5 11  2.5 16
    C 2.5 21  4.5 24.5  7.5 24.5 C 11.5 24.5  15.5 22  18 18.5 Z
  " fill="url(#shade-l28)"/>

  <defs>
    <linearGradient id="shade-r28" x1="0.3" y1="0" x2="0.7" y2="1">
      <stop offset="0%" stop-color="#000" stop-opacity="0.1"/>
      <stop offset="100%" stop-color="#fff" stop-opacity="0.05"/>
    </linearGradient>
    <linearGradient id="shade-l28" x1="0.7" y1="0" x2="0.3" y2="1">
      <stop offset="0%" stop-color="#fff" stop-opacity="0.08"/>
      <stop offset="100%" stop-color="#000" stop-opacity="0.08"/>
    </linearGradient>
  </defs>
</svg>
