<svg xmlns="http://www.w3.org/2000/svg" width="32" height="32" viewBox="0 0 32 32">
  <!-- Style 23: Thin elegant 3D ribbon - narrow band, refined twist -->

  <!-- Right loop ribbon (behind) - cyan -->
  <path d="
    M 17 14
    C 19 10.5  22.5 8  25 8
    C 28 8  30.5 11  30.5 16
    C 30.5 21  28 24  25 24
    C 22.5 24  19 21.5  17 18
    L 15.5 17
    C 17.5 20  20.5 22.5  24 22.5
    C 26.5 22.5  28.5 20  28.5 16
    C 28.5 12  26.5 9.5  24 9.5
    C 20.5 9.5  17.5 12  15.5 15
    Z
  " fill="#818CF8"/>

  <!-- Left loop ribbon (in front) - green -->
  <path d="
    M 15 18
    C 13 21.5  9.5 24  7 24
    C 4 24  1.5 21  1.5 16
    C 1.5 11  4 8  7 8
    C 9.5 8  13 10.5  15 14
    L 16.5 15
    C 14.5 12  11.5 9.5  8 9.5
    C 5.5 9.5  3.5 12  3.5 16
    C 3.5 20  5.5 22.5  8 22.5
    C 11.5 22.5  14.5 20  16.5 17
    Z
  " fill="#3B82F6"/>
</svg>
