<svg xmlns="http://www.w3.org/2000/svg" width="32" height="32" viewBox="0 0 32 32">
  <!-- Style 30: Minimal 3D ribbon - clean, simplified, modern
       Just enough shape to convey the 3D twisted ribbon, no extra effects -->

  <!-- Right loop ribbon (behind) - cyan -->
  <path d="
    M 16.5 13.5
    C 18.5 10  22 8  24.5 8
    C 27.5 8  30 11  30 16
    C 30 21  27.5 24  24.5 24
    C 22 24  18.5 22  16.5 18.5
    L 15.5 17
    C 17.5 20  20.5 22  23.5 22
    C 26 22  28 20  28 16
    C 28 12  26 10  23.5 10
    C 20.5 10  17.5 12  15.5 15
    Z
  " fill="#818CF8"/>

  <!-- Left loop ribbon (in front) - green -->
  <path d="
    M 15.5 18.5
    C 13.5 22  10 24  7.5 24
    C 4.5 24  2 21  2 16
    C 2 11  4.5 8  7.5 8
    C 10 8  13.5 10  15.5 13.5
    L 16.5 15
    C 14.5 12  11.5 10  8.5 10
    C 6 10  4 12  4 16
    C 4 20  6 22  8.5 22
    C 11.5 22  14.5 20  16.5 17
    Z
  " fill="#3B82F6"/>
</svg>
